ffmpeg started on 2025-06-05 at 20:25:23
Report written to "D:\Convert\FFMetrics\reports\ssim_report-6.txt"
Log level: 32
Command line:
ffmpeg -hide_banner -nostdin -i "G:\\\xc0\xed\xe8\xec\xe5\\\xce\xed\xe3\xee\xe8\xed\xe3\xe8\\!_36_\xce\xf1\xe5\xed\xfc_2024\\DreamCast\\\xcd\xe5\xe3\xe0\xf2\xe8\xe2\xed\xfb\xe9 \xef\xee\xe7\xe8\xf2\xe8\xe2\xed\xfb\xe9 \xf0\xfb\xe1\xe0\xea\\[DC] NegaPosi Angler - 08_Telegram_HEVC.mkv" -i "G:\\\xc0\xed\xe8\xec\xe5\\\xce\xed\xe3\xee\xe8\xed\xe3\xe8\\!_36_\xce\xf1\xe5\xed\xfc_2024\\DreamCast\\\xcd\xe5\xe3\xe0\xf2\xe8\xe2\xed\xfb\xe9 \xef\xee\xe7\xe8\xf2\xe8\xe2\xed\xfb\xe9 \xf0\xfb\xe1\xe0\xea\\[DC] NegaPosi Angler - 08_Telegram.mp4" -lavfi "[0:v]settb=AVTB,setpts=PTS-STARTPTS,format=pix_fmts=yuv420p10,fps=24000/1001,scale=1920:1080:flags=bicubic[main];[1:v]settb=AVTB,setpts=PTS-STARTPTS,format=pix_fmts=yuv420p,fps=24000/1001,scale=1920:1080:flags=bicubic[ref];[main][ref]ssim=eof_action=endall:stats_file='D\\:/Convert/FFMetrics/logs/ssim_logfile-6.txt'" -f null -
Input #0, matroska,webm, from 'G:\Аниме\Онгоинги\!_36_Осень_2024\DreamCast\Негативный позитивный рыбак\[DC] NegaPosi Angler - 08_Telegram_HEVC.mkv':
  Metadata:
    COMPATIBLE_BRANDS: isomiso2avc1mp41
    MAJOR_BRAND     : isom
    MINOR_VERSION   : 512
    ENCODER         : Lavf61.7.100
  Duration: 00:23:46.77, start: -0.021000, bitrate: 924 kb/s
  Stream #0:0: Video: hevc (Main 10), yuv420p10le(tv, bt709, progressive), 1920x1080 [SAR 1:1 DAR 16:9], 23.98 fps, 23.98 tbr, 1k tbn (default)
      Metadata:
        HANDLER_NAME    : VideoHandler
        VENDOR_ID       : [0][0][0][0]
        ENCODER         : Lavc61.19.100 libx265
        BPS             : 726710
        DURATION        : 00:23:46.633708333
        NUMBER_OF_FRAMES: 34205
        NUMBER_OF_BYTES : 129593727
        _STATISTICS_WRITING_APP: mkvpropedit v66.0.0 ('Josie') 64-bit
        _STATISTICS_WRITING_DATE_UTC: 2025-05-31 13:44:29
        _STATISTICS_TAGS: BPS DURATION NUMBER_OF_FRAMES NUMBER_OF_BYTES
  Stream #0:1: Audio: aac (LC), 48000 Hz, stereo, fltp (default)
      Metadata:
        HANDLER_NAME    : SoundHandler
        VENDOR_ID       : [0][0][0][0]
        ENCODER         : Lavc61.19.100 aac
        BPS             : 193379
        DURATION        : 00:23:46.773000000
        NUMBER_OF_FRAMES: 66881
        NUMBER_OF_BYTES : 34488513
        _STATISTICS_WRITING_APP: mkvpropedit v66.0.0 ('Josie') 64-bit
        _STATISTICS_WRITING_DATE_UTC: 2025-05-31 13:44:29
        _STATISTICS_TAGS: BPS DURATION NUMBER_OF_FRAMES NUMBER_OF_BYTES
Input #1, mov,mp4,m4a,3gp,3g2,mj2, from 'G:\Аниме\Онгоинги\!_36_Осень_2024\DreamCast\Негативный позитивный рыбак\[DC] NegaPosi Angler - 08_Telegram.mp4':
  Metadata:
    major_brand     : isom
    minor_version   : 512
    compatible_brands: isomiso2avc1mp41
    encoder         : Lavf61.1.100
  Duration: 00:23:46.75, start: 0.000000, bitrate: 3707 kb/s
  Stream #1:0[0x1](und): Video: h264 (High) (avc1 / 0x31637661), yuv420p(tv, bt709, progressive), 1920x1080 [SAR 1:1 DAR 16:9], 3559 kb/s, 23.98 fps, 23.98 tbr, 24k tbn (default)
      Metadata:
        handler_name    : VideoHandler
        vendor_id       : [0][0][0][0]
        encoder         : Lavc61.3.100 h264_qsv
  Stream #1:1[0x2](und): Audio: aac (HE-AACv2) (mp4a / 0x6134706D), 48000 Hz, stereo, fltp, 144 kb/s (default)
      Metadata:
        handler_name    : SoundHandler
        vendor_id       : [0][0][0][0]
Stream mapping:
  Stream #0:0 (hevc) -> settb:default
  Stream #1:0 (h264) -> settb:default
  ssim:default -> Stream #0:0 (wrapped_avframe)
  Stream #0:1 -> #0:1 (aac (native) -> pcm_s16le (native))
Output #0, null, to 'pipe:':
  Metadata:
    COMPATIBLE_BRANDS: isomiso2avc1mp41
    MAJOR_BRAND     : isom
    MINOR_VERSION   : 512
    encoder         : Lavf61.7.100
  Stream #0:0: Video: wrapped_avframe, yuv420p10le(tv, bt709, progressive), 1920x1080 [SAR 1:1 DAR 16:9], q=2-31, 200 kb/s, 23.98 fps, 23.98 tbn
      Metadata:
        encoder         : Lavc61.19.100 wrapped_avframe
  Stream #0:1: Audio: pcm_s16le, 48000 Hz, stereo, s16, 1536 kb/s (default)
      Metadata:
        HANDLER_NAME    : SoundHandler
        VENDOR_ID       : [0][0][0][0]
        _STATISTICS_TAGS: BPS DURATION NUMBER_OF_FRAMES NUMBER_OF_BYTES
        BPS             : 193379
        DURATION        : 00:23:46.773000000
        NUMBER_OF_FRAMES: 66881
        NUMBER_OF_BYTES : 34488513
        _STATISTICS_WRITING_APP: mkvpropedit v66.0.0 ('Josie') 64-bit
        _STATISTICS_WRITING_DATE_UTC: 2025-05-31 13:44:29
        encoder         : Lavc61.19.100 pcm_s16le
frame=  163 fps=0.0 q=-0.0 size=N/A time=00:00:06.79 bitrate=N/A speed=  13x    frame=  401 fps=389 q=-0.0 size=N/A time=00:00:16.72 bitrate=N/A speed=16.2x    frame=  661 fps=425 q=-0.0 size=N/A time=00:00:27.56 bitrate=N/A speed=17.7x    frame=  910 fps=441 q=-0.0 size=N/A time=00:00:37.95 bitrate=N/A speed=18.4x    frame= 1160 fps=450 q=-0.0 size=N/A time=00:00:48.38 bitrate=N/A speed=18.8x    frame= 1433 fps=462 q=-0.0 size=N/A time=00:00:59.76 bitrate=N/A speed=19.3x    frame= 1682 fps=466 q=-0.0 size=N/A time=00:01:10.15 bitrate=N/A speed=19.5x    frame= 1938 fps=470 q=-0.0 size=N/A time=00:01:20.83 bitrate=N/A speed=19.6x    frame= 2197 fps=472 q=-0.0 size=N/A time=00:01:31.63 bitrate=N/A speed=19.7x    frame= 2453 fps=476 q=-0.0 size=N/A time=00:01:42.31 bitrate=N/A speed=19.9x    frame= 2725 fps=480 q=-0.0 size=N/A time=00:01:53.65 bitrate=N/A speed=  20x    frame= 2999 fps=484 q=-0.0 size=N/A time=00:02:05.08 bitrate=N/A speed=20.2x    frame= 3265 fps=485 q=-0.0 size=N/A time=00:02:16.17 bitrate=N/A speed=20.2x    frame= 3504 fps=485 q=-0.0 size=N/A time=00:02:26.14 bitrate=N/A speed=20.2x    frame= 3717 fps=479 q=-0.0 size=N/A time=00:02:35.02 bitrate=N/A speed=  20x    frame= 3923 fps=475 q=-0.0 size=N/A time=00:02:43.62 bitrate=N/A speed=19.8x    frame= 4070 fps=463 q=-0.0 size=N/A time=00:02:49.75 bitrate=N/A speed=19.3x    frame= 4256 fps=457 q=-0.0 size=N/A time=00:02:57.51 bitrate=N/A speed=19.1x    frame= 4446 fps=453 q=-0.0 size=N/A time=00:03:05.43 bitrate=N/A speed=18.9x    frame= 4648 fps=450 q=-0.0 size=N/A time=00:03:13.86 bitrate=N/A speed=18.8x    frame= 4826 fps=445 q=-0.0 size=N/A time=00:03:21.28 bitrate=N/A speed=18.6x    frame= 5020 fps=442 q=-0.0 size=N/A time=00:03:29.37 bitrate=N/A speed=18.4x    frame= 5210 fps=439 q=-0.0 size=N/A time=00:03:37.30 bitrate=N/A speed=18.3x    frame= 5412 fps=436 q=-0.0 size=N/A time=00:03:45.72 bitrate=N/A speed=18.2x    frame= 5605 fps=434 q=-0.0 size=N/A time=00:03:53.77 bitrate=N/A speed=18.1x    frame= 5810 fps=433 q=-0.0 size=N/A time=00:04:02.32 bitrate=N/A speed=18.1x    frame= 6074 fps=436 q=-0.0 size=N/A time=00:04:13.33 bitrate=N/A speed=18.2x    frame= 6326 fps=438 q=-0.0 size=N/A time=00:04:23.84 bitrate=N/A speed=18.3x    frame= 6572 fps=439 q=-0.0 size=N/A time=00:04:34.10 bitrate=N/A speed=18.3x    frame= 6770 fps=437 q=-0.0 size=N/A time=00:04:42.36 bitrate=N/A speed=18.2x    frame= 6992 fps=437 q=-0.0 size=N/A time=00:04:51.62 bitrate=N/A speed=18.2x    frame= 7232 fps=438 q=-0.0 size=N/A time=00:05:01.63 bitrate=N/A speed=18.3x    frame= 7452 fps=437 q=-0.0 size=N/A time=00:05:10.81 bitrate=N/A speed=18.2x    frame= 7686 fps=438 q=-0.0 size=N/A time=00:05:20.57 bitrate=N/A speed=18.3x    frame= 7936 fps=439 q=-0.0 size=N/A time=00:05:30.99 bitrate=N/A speed=18.3x    frame= 8166 fps=440 q=-0.0 size=N/A time=00:05:40.59 bitrate=N/A speed=18.3x    frame= 8406 fps=440 q=-0.0 size=N/A time=00:05:50.60 bitrate=N/A speed=18.4x    frame= 8656 fps=441 q=-0.0 size=N/A time=00:06:01.02 bitrate=N/A speed=18.4x    frame= 8906 fps=442 q=-0.0 size=N/A time=00:06:11.45 bitrate=N/A speed=18.5x    frame= 9154 fps=443 q=-0.0 size=N/A time=00:06:21.79 bitrate=N/A speed=18.5x    frame= 9395 fps=444 q=-0.0 size=N/A time=00:06:31.84 bitrate=N/A speed=18.5x    frame= 9631 fps=444 q=-0.0 size=N/A time=00:06:41.69 bitrate=N/A speed=18.5x    frame= 9877 fps=445 q=-0.0 size=N/A time=00:06:51.95 bitrate=N/A speed=18.6x    frame=10123 fps=446 q=-0.0 size=N/A time=00:07:02.21 bitrate=N/A speed=18.6x    frame=10362 fps=446 q=-0.0 size=N/A time=00:07:12.18 bitrate=N/A speed=18.6x    frame=10597 fps=447 q=-0.0 size=N/A time=00:07:21.98 bitrate=N/A speed=18.6x    frame=10836 fps=447 q=-0.0 size=N/A time=00:07:31.95 bitrate=N/A speed=18.6x    frame=11061 fps=447 q=-0.0 size=N/A time=00:07:41.33 bitrate=N/A speed=18.6x    frame=11273 fps=446 q=-0.0 size=N/A time=00:07:50.17 bitrate=N/A speed=18.6x    frame=11516 fps=446 q=-0.0 size=N/A time=00:08:00.31 bitrate=N/A speed=18.6x    frame=11769 fps=447 q=-0.0 size=N/A time=00:08:10.86 bitrate=N/A speed=18.7x    frame=12012 fps=448 q=-0.0 size=N/A time=00:08:21.00 bitrate=N/A speed=18.7x    frame=12273 fps=449 q=-0.0 size=N/A time=00:08:31.88 bitrate=N/A speed=18.7x    frame=12526 fps=450 q=-0.0 size=N/A time=00:08:42.43 bitrate=N/A speed=18.8x    frame=12787 fps=451 q=-0.0 size=N/A time=00:08:53.32 bitrate=N/A speed=18.8x    frame=13040 fps=451 q=-0.0 size=N/A time=00:09:03.87 bitrate=N/A speed=18.8x    frame=13295 fps=452 q=-0.0 size=N/A time=00:09:14.51 bitrate=N/A speed=18.9x    frame=13551 fps=453 q=-0.0 size=N/A time=00:09:25.18 bitrate=N/A speed=18.9x    frame=13798 fps=453 q=-0.0 size=N/A time=00:09:35.49 bitrate=N/A speed=18.9x    frame=14038 fps=453 q=-0.0 size=N/A time=00:09:45.50 bitrate=N/A speed=18.9x    frame=14286 fps=454 q=-0.0 size=N/A time=00:09:55.84 bitrate=N/A speed=18.9x    frame=14544 fps=455 q=-0.0 size=N/A time=00:10:06.60 bitrate=N/A speed=  19x    frame=14796 fps=455 q=-0.0 size=N/A time=00:10:17.11 bitrate=N/A speed=  19x    frame=15046 fps=456 q=-0.0 size=N/A time=00:10:27.54 bitrate=N/A speed=  19x    frame=15301 fps=456 q=-0.0 size=N/A time=00:10:38.17 bitrate=N/A speed=  19x    frame=15558 fps=457 q=-0.0 size=N/A time=00:10:48.89 bitrate=N/A speed=19.1x    frame=15779 fps=457 q=-0.0 size=N/A time=00:10:58.11 bitrate=N/A speed=  19x    frame=16011 fps=456 q=-0.0 size=N/A time=00:11:07.79 bitrate=N/A speed=  19x    frame=16263 fps=457 q=-0.0 size=N/A time=00:11:18.30 bitrate=N/A speed=19.1x    frame=16504 fps=457 q=-0.0 size=N/A time=00:11:28.35 bitrate=N/A speed=19.1x    frame=16724 fps=457 q=-0.0 size=N/A time=00:11:37.53 bitrate=N/A speed=  19x    frame=16977 fps=457 q=-0.0 size=N/A time=00:11:48.08 bitrate=N/A speed=19.1x    frame=17196 fps=457 q=-0.0 size=N/A time=00:11:57.21 bitrate=N/A speed=  19x    frame=17447 fps=457 q=-0.0 size=N/A time=00:12:07.68 bitrate=N/A speed=19.1x    frame=17659 fps=456 q=-0.0 size=N/A time=00:12:16.52 bitrate=N/A speed=  19x    frame=17869 fps=456 q=-0.0 size=N/A time=00:12:25.28 bitrate=N/A speed=  19x    frame=18125 fps=456 q=-0.0 size=N/A time=00:12:35.96 bitrate=N/A speed=  19x    frame=18364 fps=456 q=-0.0 size=N/A time=00:12:45.93 bitrate=N/A speed=  19x    frame=18603 fps=456 q=-0.0 size=N/A time=00:12:55.90 bitrate=N/A speed=  19x    frame=18857 fps=457 q=-0.0 size=N/A time=00:13:06.49 bitrate=N/A speed=19.1x    frame=19106 fps=457 q=-0.0 size=N/A time=00:13:16.87 bitrate=N/A speed=19.1x    frame=19363 fps=458 q=-0.0 size=N/A time=00:13:27.59 bitrate=N/A speed=19.1x    frame=19610 fps=458 q=-0.0 size=N/A time=00:13:37.90 bitrate=N/A speed=19.1x    frame=19861 fps=458 q=-0.0 size=N/A time=00:13:48.36 bitrate=N/A speed=19.1x    frame=20111 fps=459 q=-0.0 size=N/A time=00:13:58.79 bitrate=N/A speed=19.1x    frame=20361 fps=459 q=-0.0 size=N/A time=00:14:09.22 bitrate=N/A speed=19.1x    frame=20628 fps=460 q=-0.0 size=N/A time=00:14:20.35 bitrate=N/A speed=19.2x    frame=20863 fps=460 q=-0.0 size=N/A time=00:14:30.16 bitrate=N/A speed=19.2x    frame=21095 fps=459 q=-0.0 size=N/A time=00:14:39.83 bitrate=N/A speed=19.2x    frame=21335 fps=460 q=-0.0 size=N/A time=00:14:49.84 bitrate=N/A speed=19.2x    frame=21575 fps=460 q=-0.0 size=N/A time=00:14:59.85 bitrate=N/A speed=19.2x    frame=21826 fps=460 q=-0.0 size=N/A time=00:15:10.32 bitrate=N/A speed=19.2x    frame=22083 fps=460 q=-0.0 size=N/A time=00:15:21.04 bitrate=N/A speed=19.2x    frame=22330 fps=461 q=-0.0 size=N/A time=00:15:31.34 bitrate=N/A speed=19.2x    frame=22579 fps=461 q=-0.0 size=N/A time=00:15:41.73 bitrate=N/A speed=19.2x    frame=22810 fps=461 q=-0.0 size=N/A time=00:15:51.36 bitrate=N/A speed=19.2x    frame=23043 fps=460 q=-0.0 size=N/A time=00:16:01.08 bitrate=N/A speed=19.2x    frame=23266 fps=460 q=-0.0 size=N/A time=00:16:10.38 bitrate=N/A speed=19.2x    frame=23520 fps=461 q=-0.0 size=N/A time=00:16:20.98 bitrate=N/A speed=19.2x    frame=23751 fps=460 q=-0.0 size=N/A time=00:16:30.61 bitrate=N/A speed=19.2x    frame=23997 fps=461 q=-0.0 size=N/A time=00:16:40.87 bitrate=N/A speed=19.2x    frame=24242 fps=461 q=-0.0 size=N/A time=00:16:51.09 bitrate=N/A speed=19.2x    frame=24486 fps=461 q=-0.0 size=N/A time=00:17:01.27 bitrate=N/A speed=19.2x    frame=24746 fps=461 q=-0.0 size=N/A time=00:17:12.11 bitrate=N/A speed=19.2x    frame=24982 fps=461 q=-0.0 size=N/A time=00:17:21.95 bitrate=N/A speed=19.2x    frame=25230 fps=461 q=-0.0 size=N/A time=00:17:32.30 bitrate=N/A speed=19.2x    frame=25486 fps=462 q=-0.0 size=N/A time=00:17:42.97 bitrate=N/A speed=19.3x    frame=25719 fps=462 q=-0.0 size=N/A time=00:17:52.69 bitrate=N/A speed=19.3x    frame=25973 fps=462 q=-0.0 size=N/A time=00:18:03.29 bitrate=N/A speed=19.3x    frame=26202 fps=462 q=-0.0 size=N/A time=00:18:12.84 bitrate=N/A speed=19.3x    frame=26438 fps=462 q=-0.0 size=N/A time=00:18:22.68 bitrate=N/A speed=19.3x    frame=26666 fps=462 q=-0.0 size=N/A time=00:18:32.19 bitrate=N/A speed=19.3x    frame=26897 fps=461 q=-0.0 size=N/A time=00:18:41.82 bitrate=N/A speed=19.2x    frame=27136 fps=461 q=-0.0 size=N/A time=00:18:51.79 bitrate=N/A speed=19.2x    frame=27389 fps=462 q=-0.0 size=N/A time=00:19:02.34 bitrate=N/A speed=19.3x    frame=27638 fps=462 q=-0.0 size=N/A time=00:19:12.73 bitrate=N/A speed=19.3x    frame=27905 fps=462 q=-0.0 size=N/A time=00:19:23.87 bitrate=N/A speed=19.3x    frame=28153 fps=462 q=-0.0 size=N/A time=00:19:34.21 bitrate=N/A speed=19.3x    frame=28408 fps=463 q=-0.0 size=N/A time=00:19:44.85 bitrate=N/A speed=19.3x    frame=28654 fps=463 q=-0.0 size=N/A time=00:19:55.11 bitrate=N/A speed=19.3x    frame=28892 fps=463 q=-0.0 size=N/A time=00:20:05.03 bitrate=N/A speed=19.3x    frame=29123 fps=463 q=-0.0 size=N/A time=00:20:14.67 bitrate=N/A speed=19.3x    frame=29374 fps=463 q=-0.0 size=N/A time=00:20:25.14 bitrate=N/A speed=19.3x    frame=29629 fps=463 q=-0.0 size=N/A time=00:20:35.77 bitrate=N/A speed=19.3x    frame=29883 fps=463 q=-0.0 size=N/A time=00:20:46.37 bitrate=N/A speed=19.3x    frame=30137 fps=464 q=-0.0 size=N/A time=00:20:56.96 bitrate=N/A speed=19.3x    frame=30373 fps=464 q=-0.0 size=N/A time=00:21:06.80 bitrate=N/A speed=19.3x    frame=30619 fps=464 q=-0.0 size=N/A time=00:21:17.06 bitrate=N/A speed=19.3x    frame=30863 fps=464 q=-0.0 size=N/A time=00:21:27.24 bitrate=N/A speed=19.3x    frame=31120 fps=464 q=-0.0 size=N/A time=00:21:37.96 bitrate=N/A speed=19.4x    frame=31375 fps=464 q=-0.0 size=N/A time=00:21:48.59 bitrate=N/A speed=19.4x    frame=31606 fps=464 q=-0.0 size=N/A time=00:21:58.23 bitrate=N/A speed=19.4x    frame=31823 fps=464 q=-0.0 size=N/A time=00:22:07.28 bitrate=N/A speed=19.3x    frame=32080 fps=464 q=-0.0 size=N/A time=00:22:18.00 bitrate=N/A speed=19.4x    frame=32328 fps=464 q=-0.0 size=N/A time=00:22:28.34 bitrate=N/A speed=19.4x    frame=32591 fps=464 q=-0.0 size=N/A time=00:22:39.31 bitrate=N/A speed=19.4x    frame=32846 fps=465 q=-0.0 size=N/A time=00:22:49.95 bitrate=N/A speed=19.4x    frame=33121 fps=465 q=-0.0 size=N/A time=00:23:01.42 bitrate=N/A speed=19.4x    frame=33351 fps=465 q=-0.0 size=N/A time=00:23:11.01 bitrate=N/A speed=19.4x    frame=33575 fps=465 q=-0.0 size=N/A time=00:23:20.35 bitrate=N/A speed=19.4x    frame=33793 fps=465 q=-0.0 size=N/A time=00:23:29.44 bitrate=N/A speed=19.4x    frame=34045 fps=465 q=-0.0 size=N/A time=00:23:39.96 bitrate=N/A speed=19.4x    [Parsed_ssim_10 @ 000001c7fc131e80] SSIM Y:0.993253 (21.709080) U:0.993136 (21.634409) V:0.993341 (21.766087) All:0.993248 (21.705968)
[out#0/null @ 000001c7fc0e4c00] video:14697KiB audio:267524KiB subtitle:0KiB other streams:0KiB global headers:0KiB muxing overhead: unknown
frame=34205 fps=465 q=-0.0 Lsize=N/A time=00:23:46.63 bitrate=N/A speed=19.4x    
